<svg xmlns="http://www.w3.org/2000/svg" xmlns:xlink="http://www.w3.org/1999/xlink" width="500" zoomAndPan="magnify" viewBox="0 0 375 374.999991" height="500" preserveAspectRatio="xMidYMid meet" version="1.0"><rect x="-37.5" width="450" fill="#ffffff" y="-37.499999" height="449.999989" fill-opacity="1"/><rect x="-37.5" width="450" fill="#000000" y="-37.499999" height="449.999989" fill-opacity="1"/><path fill="#ffffff" d="M 113.660156 84.863281 L 113.660156 290.085938 L 261.339844 290.085938 L 261.339844 84.863281 Z M 154.785156 249.039062 L 154.785156 183.371094 L 203.957031 183.371094 L 203.957031 142.324219 L 171.203125 142.324219 L 171.203125 167.035156 L 154.785156 167.035156 L 154.785156 125.90625 L 220.292969 125.90625 L 220.292969 249.039062 Z M 154.785156 249.039062 " fill-opacity="1" fill-rule="nonzero"/><path fill="#000000" d="M 154.785156 249.039062 L 154.785156 183.371094 L 203.957031 183.371094 L 203.957031 142.324219 L 171.203125 142.324219 L 171.203125 167.035156 L 154.785156 167.035156 L 154.785156 125.90625 L 220.292969 125.90625 L 220.292969 249.039062 Z M 154.785156 249.039062 " fill-opacity="1" fill-rule="nonzero"/></svg>