<svg xmlns="http://www.w3.org/2000/svg" xmlns:xlink="http://www.w3.org/1999/xlink" width="500" zoomAndPan="magnify" viewBox="0 0 375 374.999991" height="500" preserveAspectRatio="xMidYMid meet" version="1.0"><defs><clipPath id="e141cc9219"><path d="M 72 0 L 302.953125 0 L 302.953125 375 L 72 375 Z M 72 0 " clip-rule="nonzero"/></clipPath></defs><g clip-path="url(#e141cc9219)"><path fill="#000000" d="M 77.84375 337.15625 L 273.085938 337.15625 L 273.085938 375 L 77.84375 375 Z M 115.902344 200.578125 C 116.144531 169.828125 124.5 118.234375 177.6875 118.234375 C 218.550781 118.234375 234.199219 161.613281 235.257812 199.191406 L 235.257812 204.621094 C 234.917969 216.679688 232.203125 250.339844 213.019531 270.023438 C 203.726562 279.554688 191.835938 284.390625 177.671875 284.386719 C 177.671875 284.386719 176.597656 284.378906 176.597656 284.378906 C 147.246094 283.886719 115.886719 261.96875 115.886719 201.894531 C 115.894531 201.566406 115.894531 201.125 115.902344 200.578125 Z M 170.863281 318.378906 C 172.394531 318.378906 173.941406 318.339844 175.5 318.257812 C 196.273438 317.195312 214.066406 307.828125 228.40625 290.382812 C 230.890625 287.484375 233.160156 284.492188 235.257812 281.441406 L 235.257812 318.378906 L 273.085938 318.378906 L 273.085938 59.457031 L 302.910156 59.457031 L 302.910156 21.613281 L 273.085938 21.613281 L 273.085938 0 L 235.257812 0 L 235.257812 21.613281 L 173.132812 21.613281 L 173.132812 59.457031 L 235.257812 59.457031 L 235.257812 118.136719 C 232.519531 114.363281 229.550781 110.851562 226.355469 107.664062 C 211.148438 92.492188 191.230469 84.476562 168.746094 84.476562 C 144.1875 84.476562 121.300781 93.941406 104.292969 111.128906 C 83.03125 132.621094 71.996094 164.011719 72.382812 201.941406 C 72.324219 234.777344 86.242188 269.160156 108.707031 291.675781 C 126.136719 309.144531 147.628906 318.378906 170.863281 318.378906 " fill-opacity="1" fill-rule="nonzero"/></g></svg>